<?xml version="1.0" encoding="UTF-8"?>
<!DOCTYPE svg PUBLIC "-//W3C//DTD SVG 1.1 Tiny//EN" "http://www.w3.org/Graphics/SVG/1.1/DTD/svg11-tiny.dtd">
<svg xmlns="http://www.w3.org/2000/svg" xmlns:xlink="http://www.w3.org/1999/xlink" baseProfile="tiny" height="100%" viewBox="0 0 56 47" width="100%">
<g>
<g>
<linearGradient gradientUnits="userSpaceOnUse" id="XMLID_3_" x1="28.0522" x2="28.0522" y1="1.0229" y2="45.8506">
<stop offset="0" style="stop-color:#FFFFFF"/>
<stop offset="0.4438" style="stop-color:#FFFFFF"/>
<stop offset="0.5288" style="stop-color:#FBFBFB"/>
<stop offset="0.6216" style="stop-color:#EDEEEE"/>
<stop offset="0.718" style="stop-color:#D8D8D8"/>
<stop offset="0.8171" style="stop-color:#B9BABA"/>
<stop offset="0.917" style="stop-color:#929393"/>
<stop offset="1" style="stop-color:#6C6D6D"/>
</linearGradient>
<path d="M49.062,1.023H7.043c-3.484,0-6.313,2.889-6.313,6.448v31.93      c0,3.562,2.828,6.449,6.313,6.449h42.018c3.484,0,6.313-2.888,6.313-6.449V7.471C55.374,3.912,52.546,1.023,49.062,1.023z       M49.22,35.814c0,2.796-2.22,5.064-4.956,5.064H11.271c-2.736,0-4.957-2.269-4.957-5.064V10.743c0-2.796,2.22-5.063,4.957-5.063      h32.993c2.736,0,4.956,2.268,4.956,5.063V35.814z" fill="url(#XMLID_3_)" stroke="#000000"/>
<rect fill="none" height="47" width="56"/>
<linearGradient gradientUnits="userSpaceOnUse" id="XMLID_4_" x1="27.7915" x2="27.7915" y1="40.4839" y2="6.0732">
<stop offset="0" style="stop-color:#000000"/>
<stop offset="0.0884" style="stop-color:#1E1F1F"/>
<stop offset="0.2062" style="stop-color:#404040"/>
<stop offset="0.3182" style="stop-color:#585959"/>
<stop offset="0.4209" style="stop-color:#676868"/>
<stop offset="0.5056" style="stop-color:#6C6D6D"/>
<stop offset="0.5911" style="stop-color:#676868"/>
<stop offset="0.6896" style="stop-color:#595A5A"/>
<stop offset="0.7944" style="stop-color:#434343"/>
<stop offset="0.9029" style="stop-color:#232323"/>
<stop offset="1" style="stop-color:#000000"/>
</linearGradient>
<path d="M48.771,35.787c0,2.734-2.172,4.697-4.848,4.697H11.658c-2.676,0-4.847-1.963-4.847-4.697V10.728      c0-2.734,2.171-4.655,4.847-4.655h32.499c2.676,0,4.615,1.973,4.615,4.707V35.787z" fill="url(#XMLID_4_)"/>
</g>
</g>
</svg>
