<?xml version="1.0" encoding="UTF-8"?>
<!DOCTYPE svg PUBLIC "-//W3C//DTD SVG 1.1 Tiny//EN" "http://www.w3.org/Graphics/SVG/1.1/DTD/svg11-tiny.dtd">
<svg baseProfile="tiny" xmlns="http://www.w3.org/2000/svg" xmlns:xlink="http://www.w3.org/1999/xlink" width="100%" height="100%" viewBox="0 0 34 34">
<g>
<g>
<path fill="#FFFFFF" d="M28.35,23.392l-4.012-4.01c0.615-1.332,0.968-2.806,0.968-4.366c0-2.789-1.086-5.412-3.059-7.385      c-1.974-1.973-4.597-3.06-7.387-3.06C9.1,4.571,4.414,9.257,4.414,15.016c0,5.76,4.686,10.445,10.446,10.445      c1.57,0,3.055-0.358,4.393-0.981l4.002,4.003c0.682,0.682,1.588,1.057,2.551,1.056c0.962,0,1.866-0.376,2.546-1.059      c0.678-0.676,1.052-1.579,1.052-2.541C29.404,24.978,29.03,24.072,28.35,23.392z"/>
<path fill="#333333" d="M19.268,22.307l5.081,5.081c0.803,0.805,2.104,0.805,2.906,0c0.801-0.8,0.801-2.101,0-2.903l-5.082-5.08      L19.268,22.307z"/>
<path fill="#333333" d="M14.86,6.12c-4.914,0-8.898,3.983-8.898,8.897s3.984,8.897,8.898,8.897c4.915,0,8.898-3.983,8.898-8.897      S19.775,6.12,14.86,6.12z M14.86,21.98c-3.846,0-6.965-3.117-6.965-6.963s3.119-6.964,6.965-6.964s6.964,3.118,6.964,6.964      C21.824,18.862,18.706,21.98,14.86,21.98z"/>
<circle fill="#FFFFFF" cx="14.86" cy="15.017" r="6.963"/>
<polygon fill="#333333" points="19.513,13.935 16.241,13.935 16.241,10.66 14.086,10.66 14.086,13.935 10.813,13.935       10.813,16.097 14.086,16.097 14.086,19.369 16.241,19.369 16.241,16.097 19.513,16.097 "/>
<rect fill="none" width="34" height="34"/>
</g>
</g>
</svg>
