<?xml version="1.0" encoding="UTF-8"?>
<!DOCTYPE svg PUBLIC "-//W3C//DTD SVG 1.1 Tiny//EN" "http://www.w3.org/Graphics/SVG/1.1/DTD/svg11-tiny.dtd">
<svg baseProfile="tiny" xmlns="http://www.w3.org/2000/svg" xmlns:xlink="http://www.w3.org/1999/xlink" width="100%" height="100%" viewBox="0 0 34 34">
<g>
<g>
<rect fill="none" width="34" height="34"/>
<g>
<path d="M12.869,12.177l-6.132-0.039v8.812h6.099l10.438,8.302V3.824L12.869,12.177z M22.211,26.977l-8.951-7.108h-5.48       l0.034-6.687h5.446l8.951-7.132V26.977z"/>
<polygon fill="#FFFFFF" points="7.813,13.182 13.261,13.182 22.211,6.049 22.211,26.977 13.261,19.869 7.779,19.869 "/>
</g>
<g>
<rect x="5.177" y="15.131" transform="matrix(0.6582 0.7529 -0.7529 0.6582 19.3213 -8.56)" fill="#FFFFFF" width="27.82" height="3.734"/>
<path d="M27.24,28.346L8.93,7.402L8.879,8.158L11.69,5.7l-0.755-0.051l18.31,20.946l0.05-0.756l-2.811,2.457L27.24,28.346z        M30.051,25.889L11.741,4.944L11.39,4.541l-0.404,0.353L8.174,7.351L7.771,7.704l0.354,0.403l18.311,20.945l0.353,0.402       l0.402-0.353L30,26.645l0.403-0.352L30.051,25.889z"/>
</g>
</g>
</g>
</svg>
