<?xml version="1.0" encoding="UTF-8"?>
<!DOCTYPE svg PUBLIC "-//W3C//DTD SVG 1.1 Tiny//EN" "http://www.w3.org/Graphics/SVG/1.1/DTD/svg11-tiny.dtd">
<svg baseProfile="tiny" xmlns="http://www.w3.org/2000/svg" xmlns:xlink="http://www.w3.org/1999/xlink" width="100%" height="100%" viewBox="0 0 34 34">
<g>
<g>
<path fill="none" d="M0,0v34h34V0H0z M15.594,26.714L7.24,20.081H2.125l0.031-6.241H7.24l8.354-6.656V26.714z"/>
<polygon fill="none" points="2.156,13.839 2.125,20.081 7.24,20.081 15.594,26.714 15.594,7.183 7.24,13.839 "/>
<g>
<g>
<path fill="#FFFFFF" d="M25.791,6.2c6.414,7.377,4.08,15.764-0.033,21.594l1.822,1.822c5.646-7.58,6.959-17.863,0.029-25.235        L25.791,6.2z"/>
<path d="M25.414,6.528c7.342,8.444,2.4,17.483-0.064,20.978l-0.243,0.344l0.298,0.298l1.822,1.822l0.409,0.409l0.346-0.464        c5.351-7.184,7.424-17.971-0.008-25.876L27.62,3.662l-0.364,0.365l-1.818,1.819l-0.33,0.33L25.414,6.528z M27.245,4.723        c7.035,7.484,5.036,17.746-0.066,24.594l0.755-0.055l-1.822-1.822l0.055,0.642c2.602-3.687,7.809-13.231,0.002-22.21        l-0.023,0.682l1.818-1.819L27.245,4.723z"/>
</g>
</g>
<g>
<path fill="#FFFFFF" d="M20.635,11.362c2.807,3.43,2.285,7.756-0.053,11.238l1.832,1.837       c3.299-4.799,3.881-10.415,0.029-14.883L20.635,11.362z"/>
<path d="M20.248,11.679c2.43,2.969,2.399,6.948-0.081,10.643l-0.229,0.341l0.29,0.291l1.832,1.837l0.426,0.426l0.341-0.496       c3.709-5.396,3.707-11.187-0.004-15.493L22.471,8.82L22.09,9.201l-1.809,1.808l-0.32,0.32L20.248,11.679z M22.064,9.881       c3.447,3.999,3.425,9.201-0.063,14.273l0.767-0.07l-1.832-1.837l0.061,0.632c2.739-4.08,2.749-8.504,0.024-11.833l-0.033,0.67       l1.809-1.808L22.064,9.881z"/>
</g>
<g>
<path d="M6.875,12.902l-5.723-0.036v8.224h5.692l9.742,7.748V5.106L6.875,12.902z M15.594,26.714L7.24,20.081H2.125       l0.031-6.241H7.24l8.354-6.656V26.714z"/>
<polygon fill="#FFFFFF" points="2.156,13.839 7.24,13.839 15.594,7.183 15.594,26.714 7.24,20.081 2.125,20.081 "/>
</g>
</g>
</g>
</svg>
